<svg class="main-svg" xmlns="http://www.w3.org/2000/svg" xmlns:xlink="http://www.w3.org/1999/xlink" width="700" height="500" style="" viewBox="0 0 700 500"><rect x="0" y="0" width="700" height="500" style="fill: rgb(255, 255, 255); fill-opacity: 1;"/><defs id="defs-051c91"><g class="clips"><clipPath id="clip051c91xyplot" class="plotclip"><rect width="480" height="435"/></clipPath><clipPath class="axesclip" id="clip051c91x"><rect x="60" y="0" width="480" height="500"/></clipPath><clipPath class="axesclip" id="clip051c91y"><rect x="0" y="25" width="700" height="435"/></clipPath><clipPath class="axesclip" id="clip051c91xy"><rect x="60" y="25" width="480" height="435"/></clipPath></g><g class="gradients"/><g class="patterns"/></defs><g class="bglayer"/><g class="layer-below"><g class="imagelayer"/><g class="shapelayer"/></g><g class="cartesianlayer"><g class="subplot xy"><g class="layer-subplot"><g class="shapelayer"/><g class="imagelayer"/></g><g class="gridlayer"><g class="x"><path class="xgrid crisp" transform="translate(147.62,0)" d="M0,25v435" style="stroke: rgb(238, 238, 238); stroke-opacity: 1; stroke-width: 1px;"/><path class="xgrid crisp" transform="translate(257.12,0)" d="M0,25v435" style="stroke: rgb(238, 238, 238); stroke-opacity: 1; stroke-width: 1px;"/><path class="xgrid crisp" transform="translate(366.63,0)" d="M0,25v435" style="stroke: rgb(238, 238, 238); stroke-opacity: 1; stroke-width: 1px;"/><path class="xgrid crisp" transform="translate(476.13,0)" d="M0,25v435" style="stroke: rgb(238, 238, 238); stroke-opacity: 1; stroke-width: 1px;"/></g><g class="y"><path class="ygrid crisp" transform="translate(0,376.89)" d="M60,0h480" style="stroke: rgb(238, 238, 238); stroke-opacity: 1; stroke-width: 1px;"/><path class="ygrid crisp" transform="translate(0,313.68)" d="M60,0h480" style="stroke: rgb(238, 238, 238); stroke-opacity: 1; stroke-width: 1px;"/><path class="ygrid crisp" transform="translate(0,250.46)" d="M60,0h480" style="stroke: rgb(238, 238, 238); stroke-opacity: 1; stroke-width: 1px;"/><path class="ygrid crisp" transform="translate(0,187.25)" d="M60,0h480" style="stroke: rgb(238, 238, 238); stroke-opacity: 1; stroke-width: 1px;"/><path class="ygrid crisp" transform="translate(0,124.03)" d="M60,0h480" style="stroke: rgb(238, 238, 238); stroke-opacity: 1; stroke-width: 1px;"/><path class="ygrid crisp" transform="translate(0,60.82)" d="M60,0h480" style="stroke: rgb(238, 238, 238); stroke-opacity: 1; stroke-width: 1px;"/></g></g><g class="zerolinelayer"><path class="yzl zl crisp" transform="translate(0,440.1)" d="M60,0h480" style="stroke: rgb(68, 68, 68); stroke-opacity: 1; stroke-width: 1px;"/></g><path class="xlines-below"/><path class="ylines-below"/><g class="overlines-below"/><g class="xaxislayer-below"/><g class="yaxislayer-below"/><g class="overaxes-below"/><g class="plot" transform="translate(60,25)" clip-path="url(#clip051c91xyplot)"><g class="scatterlayer mlayer"><g class="trace scatter tracef36bab" style="stroke-miterlimit: 2; opacity: 1;"><g class="fills"/><g class="errorbars"/><g class="lines"><path class="js-line" d="M0,298.52L1.86,314.84L3.54,310.89L7.2,369.61L9.06,366.24L10.85,368.2L12.71,358.15L14.57,343.82L16.37,343.23L18.23,337.07L20.03,317.75L21.89,294.94L23.75,298.73L25.43,303.94L27.29,327.98L29.09,334.16L30.94,345.67L32.74,332.72L34.6,331.81L38.26,344.11L40.12,325.25L41.92,297.37L43.78,293.05L45.64,300.52L47.32,302.13L50.97,354.3L52.83,366.07L56.49,359.63L58.35,362.07L60.15,353.17L62.01,334.33L65.67,290.41L67.53,288.76L69.27,314.05L71.12,329.66L72.92,343.9L74.78,352.59L76.58,350.73L78.44,347.7L80.3,349.78L82.1,353.4L83.96,340.07L85.76,314.74L87.62,292.36L89.48,288.18L91.15,296.41L93.01,320.55L96.67,350.6L98.47,345.11L100.33,344.89L102.19,363.29L105.85,340.38L107.65,310.74L109.51,299.86L111.36,304.32L113.04,290.36L114.9,325.33L116.7,338.29L118.56,340.14L120.36,332.44L122.22,342.24L124.08,350.65L125.88,336.5L127.74,332.63L129.54,317.49L131.39,297.37L133.25,285.84L134.93,289.68L136.79,312.53L140.45,352.09L142.25,341.38L144.11,336.62L145.97,346.57L147.77,346.06L149.63,329.12L151.42,297.4L153.28,285.25L156.88,309.5L158.74,330.34L162.4,357.77L164.2,340.94L166.06,354.76L167.92,360.35L169.72,338.58L171.57,331.99L175.23,273.9L177.09,280.77L178.77,289.36L180.63,327.37L182.43,348.88L184.29,354.01L186.09,338.04L187.95,332.86L189.81,350.69L191.6,332.33L193.46,328.63L195.26,291.75L197.12,256.41L198.98,279.95L202.52,341.43L204.32,336.62L206.18,336.81L207.98,321.32L211.69,335.28L213.49,333.94L219.01,246.93L220.87,255.74L224.41,306.13L226.21,322.07L228.07,329.04L229.87,313.45L231.72,311.51L233.58,313.84L235.38,311.91L237.24,295.44L240.9,258.34L242.76,271.3L246.36,320.76L248.16,332.6L250.01,322.48L251.81,303.76L253.67,302L255.53,312.85L257.33,305.28L259.19,273.57L260.99,262.64L262.85,244.06L266.39,263.83L268.25,299.75L271.9,327.7L273.7,310.57L275.56,321.77L277.42,324.09L279.22,322.83L281.08,288.52L282.88,254.48L284.74,246.18L286.6,249.88L288.28,256.71L291.93,320.97L293.79,324.04L295.59,311.51L297.45,316.26L299.31,332.28L301.11,329.7L306.63,212.79L308.49,232.97L310.16,241.73L312.02,287.25L313.82,318.39L315.68,322.16L317.48,309.02L319.34,303.64L321.2,314.54L323,305.23L324.86,290.48L326.66,269.25L328.52,233.96L330.37,246.51L332.11,279.79L333.97,281.68L337.63,325.21L339.43,308.95L341.29,304.66L343.15,319.26L344.95,310.07L346.81,280.2L348.61,243.83L350.46,230.82L352.32,262.04L354,254.78L355.86,311.59L357.66,331.42L359.52,330.51L361.32,312.27L363.18,314.19L365.04,329.32L366.84,317.39L368.7,271.08L370.49,234.07L372.35,218.43L374.21,259.58L375.89,243.36L379.55,321.33L381.41,308.43L383.21,291.53L385.07,284.96L386.93,301.62L388.73,282.99L392.38,223.06L394.24,209.82L396.1,239.2L397.78,248.4L399.64,285.77L401.44,305.03L403.3,308.82L405.1,273.98L406.96,287.83L408.82,308.59L410.61,309.06L412.47,246.2L414.27,200.94L416.13,211.91L417.99,224.6L419.73,257.05L421.59,270.53L423.39,304.24L425.25,289.44L427.05,268.21L430.76,299.87L432.56,294.99L434.42,276.46L436.22,216.21L438.08,202.66L439.94,220.11L441.62,235.89L443.48,287.73L445.28,298.9L447.14,283.63L448.94,282.47L450.79,272.69L452.65,292.82L454.45,295.71L456.31,234.14L458.11,224.45L459.97,195.89L461.83,225.47L463.51,238.08L465.37,283.22L467.17,301.68L469.03,288.23L470.82,268.67L472.68,267.5L474.54,284.74L476.34,287.46L480,230.35" style="vector-effect: non-scaling-stroke; fill: none; stroke: rgb(102, 194, 165); stroke-opacity: 1; stroke-width: 2px; opacity: 1;"/></g><g class="points"/><g class="text"/></g><g class="trace scatter trace937167" style="stroke-miterlimit: 2; opacity: 1;"><g class="fills"/><g class="errorbars"/><g class="lines"><path class="js-line" d="M0,373.78L1.86,371.47L3.54,371.17L5.4,378.5L7.2,365.92L9.06,371.12L10.85,363.51L12.71,358.08L14.57,359.25L16.37,359.07L18.23,354.14L20.03,357.41L21.89,352.79L23.75,347.23L25.43,357.38L27.29,357.03L29.09,351.7L30.94,354.4L32.74,364.75L34.6,346.14L36.46,363.36L38.26,345.73L40.12,338.23L41.92,339.73L43.78,364.23L45.64,383.28L47.32,379.82L49.18,377.65L50.97,386.17L52.83,384.03L54.63,377.17L56.49,379.52L58.35,379.66L60.15,373.05L62.01,377.36L63.81,376.95L65.67,370.25L67.53,364.22L69.27,366.84L72.92,374.04L74.78,375.19L76.58,373.08L78.44,368.75L80.3,376.54L82.1,370.68L83.96,365.88L85.76,365.43L87.62,377.92L89.48,378.29L91.15,377.46L93.01,378.67L94.81,388.79L96.67,382.47L98.47,377.91L100.33,376.56L102.19,383.9L103.99,383.78L105.85,388.32L107.65,400.98L109.51,390.52L111.36,384.44L113.04,381.98L114.9,389.25L116.7,382.62L118.56,383.52L120.36,373.98L122.22,381.83L124.08,379.83L125.88,371.9L129.54,382.12L131.39,376.04L134.93,384.32L136.79,384.96L138.59,388.41L140.45,385.52L142.25,374.61L144.11,374.63L145.97,387.67L147.77,391.52L151.42,374.14L153.28,376.28L155.14,383.08L156.88,381.04L158.74,377.63L160.54,379.2L162.4,386.37L164.2,376.06L166.06,383.48L167.92,377.4L169.72,378.36L171.57,372.21L173.37,372.67L175.23,375.58L177.09,382.19L178.77,377.34L182.43,388.46L184.29,379.74L186.09,379.65L187.95,376.68L189.81,381.49L191.6,373.55L193.46,374.08L195.26,369.11L197.12,370.02L198.98,377.57L202.52,385.72L204.32,378.64L207.98,369.49L209.84,370.41L211.69,374.32L213.49,375.14L215.35,376.02L217.15,368.82L219.01,370.59L220.87,381.14L222.55,382.67L224.41,379.54L226.21,380.4L228.07,383.37L229.87,375.01L231.72,378.08L233.58,381.86L235.38,380.63L237.24,379.61L239.04,370.3L240.9,366.91L242.76,371.15L244.5,377.76L246.36,389.73L248.16,392.43L250.01,385.83L251.81,375.51L253.67,372.27L255.53,381.32L257.33,381.23L259.19,381.46L260.99,378.92L262.85,370.52L264.71,380.45L266.39,378.29L268.25,385.01L270.04,387.31L271.9,386.12L273.7,382.78L275.56,386.98L277.42,388.26L279.22,385.07L281.08,380.38L282.88,370.25L284.74,371.86L286.6,382.8L288.28,379.8L290.13,384.22L291.93,389.36L293.79,381.13L295.59,374.93L297.45,388.52L299.31,392.64L301.11,392.96L302.97,383.14L304.77,384.65L306.63,375.34L308.49,381.31L310.16,377.94L312.02,389.43L313.82,395.95L315.68,397.52L319.34,390.53L321.2,391.94L323,383.91L324.86,387.37L326.66,388L328.52,377.77L330.37,383.47L332.11,391.37L333.97,389.47L335.77,389.22L337.63,392.66L339.43,382.61L341.29,380.57L343.15,391.31L344.95,389.1L346.81,392.81L350.46,384.55L352.32,387.33L354,386L355.86,391.38L357.66,394.6L359.52,395.68L361.32,393.54L363.18,395.51L365.04,400.01L366.84,396.74L368.7,394.77L370.49,388.45L372.35,386.11L374.21,392.45L375.89,387.55L377.75,394.27L379.55,398.11L381.41,396.94L383.21,391.37L385.07,388.5L386.93,395.05L388.73,386.36L390.58,388.27L392.38,387.71L394.24,381.26L396.1,385.42L397.78,387.39L399.64,396.48L401.44,397.11L403.3,399.92L405.1,393.77L406.96,398.1L408.82,397.63L410.61,393.2L412.47,390.65L414.27,385.72L416.13,384.01L417.99,387.08L419.73,391.57L421.59,392.98L423.39,393.86L425.25,392.55L427.05,388.51L428.91,394.14L430.76,399.65L432.56,396.6L434.42,395.06L436.22,384.99L438.08,381.43L439.94,379.82L443.48,392.55L445.28,393.64L448.94,394.7L450.79,390.46L452.65,395.95L454.45,387.53L456.31,384.17L458.11,383.18L459.97,371.32L461.83,378.89L463.51,380.44L465.37,390.44L467.17,386.95L469.03,389.24L470.82,385.78L474.54,386.12L480,380.92" style="vector-effect: non-scaling-stroke; fill: none; stroke: rgb(252, 141, 98); stroke-opacity: 1; stroke-width: 2px; opacity: 1;"/></g><g class="points"/><g class="text"/></g><g class="trace scatter trace7b4b39" style="stroke-miterlimit: 2; opacity: 1;"><g class="fills"/><g class="errorbars"/><g class="lines"><path class="js-line" d="M0,129.5L1.86,156.76L3.54,164.21L7.2,266.58L9.06,289.95L10.85,293.07L12.71,268.74L14.57,271.27L16.37,259.43L18.23,259.31L20.03,216.26L21.89,133.43L23.75,159.59L25.43,160.38L27.29,225.53L32.74,268.11L34.6,244.7L36.46,254.4L38.26,241.37L40.12,213.08L41.92,127.89L43.78,119.69L45.64,117.39L49.18,189.77L50.97,248.22L52.83,258.16L54.63,247.07L56.49,254.15L58.35,267.85L60.15,210.19L62.01,210.25L65.67,115.87L67.53,115.75L69.27,158.98L71.12,172.92L72.92,265.25L74.78,273.76L76.58,268.43L78.44,278.66L80.3,287.92L82.1,271.54L85.76,193.28L87.62,138.96L91.15,125.98L93.01,186.51L94.81,253.81L96.67,256.82L98.47,258.19L100.33,254.65L103.99,295.5L105.85,259.27L107.65,169.71L109.51,148.02L111.36,162.46L113.04,139.09L114.9,217.55L116.7,244.84L118.56,250.76L120.36,229.96L122.22,259.43L124.08,276.37L125.88,252.11L127.74,253.87L131.39,167.68L133.25,114.74L134.93,120.7L136.79,161.41L138.59,247.49L140.45,260.72L142.25,244.82L144.11,236.14L145.97,259.19L147.77,258.66L149.63,215.28L151.42,126.24L153.28,115.42L155.14,123.69L156.88,127.6L158.74,189.85L160.54,263.48L162.4,258.54L164.2,235.63L166.06,271.72L167.92,278.33L169.72,249.3L175.23,74.58L177.09,120.75L178.77,153.1L180.63,221.4L182.43,287.18L184.29,297.42L187.95,243.52L189.81,263.4L191.6,228.1L193.46,212.68L195.26,117.5L197.12,74.39L198.98,118.75L200.66,177.86L202.52,228.08L204.32,236.05L206.18,247.38L207.98,212.79L209.84,217.64L211.69,247.89L213.49,238.26L215.35,183.21L217.15,90.42L219.01,39.8L226.21,241.95L228.07,261.83L229.87,225.37L231.72,221.23L233.58,246.21L235.38,204.17L237.24,182.1L239.04,145.93L240.9,102.03L242.76,124.16L246.36,230.46L248.16,251.01L250.01,249.39L251.81,221.56L253.67,212.2L255.53,235.35L257.33,236.85L259.19,181.38L262.85,97.37L264.71,126.52L266.39,147.53L268.25,192.93L271.9,267.37L273.7,217.86L275.56,235.15L277.42,259.96L279.22,240.06L281.08,180.04L284.74,75.2L286.6,113.14L288.28,132.58L290.13,174.36L291.93,242.58L293.79,273.6L295.59,242.5L297.45,252.16L299.31,269.13L301.11,236.08L304.77,156.15L306.63,56.48L308.49,55.36L310.16,108.28L312.02,208.41L313.82,245.7L315.68,258.95L317.48,213.02L319.34,210.75L321.2,250.68L323,223.31L324.86,218.38L326.66,188.49L328.52,96.3L330.37,116.89L332.11,165.42L337.63,247.72L339.43,224.02L341.29,224.48L343.15,267.76L344.95,256.82L346.81,207.52L348.61,97.04L350.46,85.63L352.32,132.78L354,78.07L355.86,195.9L357.66,237.77L359.52,252.71L361.32,242.35L363.18,239.21L365.04,259.42L366.84,248.29L368.7,174.68L370.49,48.39L372.35,27.72L374.21,74.41L375.89,94.01L379.55,293.4L381.41,295.6L383.21,247.41L385.07,233.45L386.93,275.2L388.73,251.58L394.24,21.75L396.1,84.76L397.78,110.53L399.64,225.28L401.44,275.01L403.3,303.47L405.1,244.65L406.96,272.85L408.82,299.9L410.61,270.54L414.27,73.5L416.13,75.56L417.99,107.92L419.73,191.45L421.59,221.23L423.39,302.04L425.25,301.65L427.05,237.48L430.76,299.86L432.56,252.38L434.42,217.59L436.22,100.91L438.08,51.76L439.94,70.17L445.28,293.7L447.14,278.79L448.94,273.23L450.79,273.79L452.65,299.57L454.45,274.56L459.97,60.06L461.83,107.27L467.17,270.5L469.03,300.29L470.82,261.45L472.68,262.77L474.54,298.8L476.34,291.34L480,118.68" style="vector-effect: non-scaling-stroke; fill: none; stroke: rgb(141, 160, 203); stroke-opacity: 1; stroke-width: 2px; opacity: 1;"/></g><g class="points"/><g class="text"/></g><g class="trace scatter trace6a5c14" style="stroke-miterlimit: 2; opacity: 1;"><g class="fills"/><g class="errorbars"/><g class="lines"><path class="js-line" d="M0,395.06L1.86,394.18L3.54,396.45L7.2,405.99L9.06,407.93L12.71,409.49L14.57,407.63L18.23,403.07L20.03,399.17L23.75,394.95L25.43,397.19L29.09,403.63L30.94,406.11L32.74,404.63L34.6,408.43L36.46,406.37L38.26,408.54L40.12,403.43L41.92,392.93L43.78,371.84L45.64,374.29L47.32,380.4L49.18,391.26L50.97,395.6L52.83,402.24L56.49,379.45L58.35,388.77L60.15,385.75L62.01,392.51L65.67,382.21L67.53,367.09L71.12,376.35L72.92,397.96L74.78,386.83L76.58,388.76L78.44,387.88L80.3,384.97L82.1,394.91L83.96,379.05L85.76,377.01L87.62,371.12L89.48,367.41L91.15,371.64L93.01,379.13L94.81,376.86L96.67,378.29L98.47,378.56L100.33,377.11L102.19,386.71L103.99,389.38L105.85,382.4L107.65,377.25L109.51,365.91L111.36,371.97L113.04,365.47L116.7,399.27L118.56,398.62L122.22,382.82L124.08,380.92L125.88,377.7L127.74,390.76L129.54,375.51L131.39,373.1L133.25,381.42L134.93,382.5L136.79,380.78L138.59,390.92L140.45,388.41L142.25,379.44L144.11,380.84L145.97,377.37L147.77,387.95L149.63,386.49L151.42,379.44L153.28,365.88L156.88,367.33L158.74,383.01L162.4,389.03L164.2,380.11L166.06,384.28L167.92,381.27L169.72,380.03L171.57,374.37L173.37,372.8L175.23,362.11L177.09,370.18L178.77,387.24L180.63,385.71L182.43,387.76L184.29,396.06L186.09,391.28L187.95,390.07L189.81,394.56L193.46,383.43L195.26,365.15L202.52,401.34L204.32,396.33L207.98,381.61L209.84,380.68L211.69,381.11L213.49,387.39L215.35,366.48L217.15,367.92L219.01,369.62L220.87,365.3L224.41,377.92L226.21,383.06L228.07,391.33L229.87,378.74L233.58,386.31L235.38,388.82L237.24,374.86L239.04,368.82L240.9,360.09L242.76,367.06L244.5,380.69L246.36,385.58L248.16,378.96L250.01,380.83L251.81,375.4L253.67,377.56L255.53,381.77L257.33,380.44L259.19,384.24L260.99,373.44L266.39,381.39L268.25,399.25L270.04,397.45L271.9,389.49L273.7,383.48L275.56,386.16L277.42,388.54L279.22,394.44L281.08,387.63L282.88,377.33L284.74,385.93L286.6,390.89L288.28,381.3L290.13,381.66L293.79,389.77L295.59,384.15L297.45,388.45L299.31,387.23L301.11,383.79L302.97,386.54L306.63,363.79L308.49,372.92L310.16,370.97L312.02,381.3L315.68,385.44L317.48,382.22L319.34,379.89L321.2,383.97L323,385.78L324.86,376.93L326.66,381.04L328.52,377.77L332.11,394.06L333.97,379.29L335.77,387.46L337.63,390.79L339.43,383L341.29,380.28L343.15,383.95L344.95,392.22L346.81,380.97L348.61,379L352.32,390.06L354,383.52L355.86,380.58L357.66,394.29L361.32,390.23L363.18,386.38L365.04,387.28L366.84,395.9L370.49,380.44L372.35,380.28L374.21,392.71L375.89,391.87L377.75,395.17L379.55,401.37L381.41,388.67L383.21,381.97L385.07,381.99L386.93,393.52L388.73,385.37L390.58,385.89L392.38,387.98L394.24,378.41L396.1,386.73L397.78,383.29L399.64,388.96L401.44,402.81L405.1,381.35L406.96,383.74L408.82,393.31L410.61,384.4L412.47,390.2L414.27,378.14L416.13,377.34L417.99,382.39L419.73,388.33L421.59,389.71L423.39,398.58L425.25,390.31L427.05,380.15L428.91,388.56L430.76,388.45L432.56,391.28L434.42,392.39L436.22,386.21L438.08,375.81L439.94,376.26L441.62,390.2L443.48,391.81L445.28,392.17L447.14,385.88L450.79,380.13L452.65,383.51L454.45,379.66L456.31,392.62L459.97,376.69L461.83,382.81L463.51,383.65L465.37,382.91L469.03,384.38L470.82,382.25L472.68,378.86L474.54,388.88L478.2,398.65L480,383.75" style="vector-effect: non-scaling-stroke; fill: none; stroke: rgb(231, 138, 195); stroke-opacity: 1; stroke-width: 2px; opacity: 1;"/></g><g class="points"/><g class="text"/></g><g class="trace scatter tracec3189a" style="stroke-miterlimit: 2; opacity: 1;"><g class="fills"/><g class="errorbars"/><g class="lines"><path class="js-line" d="M0,355.52L1.86,359L3.54,352.61L5.4,367.27L7.2,368.85L9.06,374.53L10.85,371.04L12.71,367.46L14.57,367.74L16.37,366.73L18.23,371.37L20.03,356.75L21.89,348.66L25.43,365.49L27.29,371.97L30.94,378.71L32.74,377.98L36.46,379.51L38.26,378.94L40.12,358.33L41.92,354.71L43.78,354.99L45.64,351L47.32,355.5L49.18,378.94L50.97,387.72L52.83,384.11L54.63,378.25L56.49,380.82L58.35,384.18L60.15,385.33L62.01,374.22L63.81,372.94L65.67,357.44L67.53,354.72L69.27,373.34L71.12,374.82L74.78,381.61L76.58,387.95L78.44,384.22L80.3,392.38L82.1,391.87L83.96,377.08L85.76,371.14L87.62,361.98L89.48,358.73L91.15,365.5L93.01,366.24L94.81,376.78L96.67,375.32L98.47,377.24L100.33,377.11L102.19,384.53L103.99,382.43L105.85,381.94L107.65,368.11L109.51,363.22L111.36,372.52L113.04,368.29L114.9,379.84L116.7,377.58L118.56,379.58L120.36,370.97L122.22,380.26L124.08,378.92L125.88,371.83L127.74,380.51L129.54,375.72L131.39,364.61L133.25,353.37L134.93,362.17L140.45,384.32L142.25,370.8L144.11,367.24L145.97,374.41L149.63,377.93L151.42,356.84L153.28,351.43L155.14,356.84L156.88,362.09L158.74,355.9L160.54,376.59L162.4,372.37L164.2,370.68L166.06,375.35L167.92,380.06L169.72,374.44L171.57,379.61L173.37,367.74L175.23,351.53L177.09,350.76L178.77,353.94L180.63,369.65L182.43,378.33L184.29,375.28L187.95,364.89L189.81,376.45L191.6,380.97L193.46,370.1L197.12,347.37L198.98,358.55L202.52,375.64L204.32,378.38L206.18,371.66L207.98,370.85L209.84,365.25L211.69,373.73L213.49,370.48L215.35,371.18L217.15,345.79L219.01,340.44L220.87,356.28L222.55,350.64L224.41,373.8L226.21,371.61L228.07,374.43L229.87,367.64L231.72,369.56L233.58,366.66L235.38,368.49L237.24,358.9L240.9,350.52L242.76,351.04L244.5,366.69L246.36,376.09L248.16,369.07L250.01,371.53L253.67,362.46L255.53,371.97L257.33,367.84L259.19,367.53L260.99,362.15L262.85,359.54L264.71,369.74L266.39,373.98L268.25,370.76L270.04,370.68L271.9,378.82L273.7,369.67L275.56,372.76L277.42,372.92L279.22,373.37L281.08,370.17L282.88,364.99L284.74,356.35L286.6,366.78L288.28,367.95L290.13,362.86L291.93,381.55L295.59,369.23L297.45,370.21L299.31,372.67L301.11,378.74L302.97,373.2L304.77,364.77L306.63,354.64L308.49,357.15L310.16,357.05L312.02,379.51L313.82,368.33L315.68,367.01L317.48,363.04L319.34,362.22L321.2,384.46L323,375.63L324.86,366.93L326.66,371.4L328.52,361.5L330.37,365.33L332.11,361.76L333.97,376.31L335.77,370.97L337.63,377.41L339.43,370.83L341.29,372.25L344.95,382.64L346.81,374.89L348.61,361.52L350.46,362.96L352.32,370.23L354,361.28L355.86,362.77L357.66,380.83L359.52,381.67L361.32,370.66L363.18,372.93L365.04,372.46L366.84,367.91L368.7,361.14L370.49,352.31L372.35,351.98L374.21,365.4L375.89,359.48L377.75,367.06L379.55,379L381.41,374.29L383.21,363.89L385.07,357.54L386.93,362.48L388.73,356.9L390.58,359.38L392.38,355.26L394.24,354.13L396.1,364.78L397.78,359.03L399.64,371.39L401.44,375.95L403.3,379.77L405.1,364.45L406.96,362.07L408.82,377.69L410.61,365.65L412.47,359.66L414.27,360.21L416.13,357.1L417.99,357.72L419.73,362.69L421.59,364.94L423.39,375.87L425.25,367.32L427.05,365.17L430.76,367.6L432.56,377.69L434.42,357.77L436.22,354.3L438.08,347.8L439.94,355.59L441.62,358.13L443.48,381.83L445.28,380.83L447.14,373.22L448.94,367.55L450.79,365.47L452.65,372.97L454.45,366.11L458.11,353.53L459.97,339.77L463.51,358.96L465.37,376.55L467.17,373.39L469.03,371.88L470.82,363.71L472.68,365.28L476.34,380.76L480,364.99" style="vector-effect: non-scaling-stroke; fill: none; stroke: rgb(166, 216, 84); stroke-opacity: 1; stroke-width: 2px; opacity: 1;"/></g><g class="points"/><g class="text"/></g><g class="trace scatter tracef0572c" style="stroke-miterlimit: 2; opacity: 1;"><g class="fills"/><g class="errorbars"/><g class="lines"><path class="js-line" d="M0,407.74L1.86,408.76L3.54,408.25L9.06,412.69L10.85,413.18L14.57,412.82L16.37,412.33L21.89,407.98L23.75,407.84L30.94,412.4L32.74,413.02L36.46,412.9L38.26,412.04L41.92,408.76L43.78,407.81L45.64,407.57L47.32,408.39L49.18,409.38L50.97,411.69L54.63,413.25L56.49,413.13L58.35,413.05L60.15,411.93L67.53,406.37L69.27,408.33L74.78,412.44L76.58,413.01L82.1,412.07L83.96,410.24L87.62,407.45L89.48,407.01L91.15,407.52L93.01,410.2L96.67,412.55L98.47,413.14L102.19,413.24L103.99,412.46L109.51,408.07L111.36,408.38L113.04,407.58L114.9,410.39L116.7,411.94L118.56,412.48L122.22,413.09L124.08,412.91L127.74,410.94L129.54,409.46L133.25,406.41L134.93,407.2L138.59,411.71L140.45,412.69L145.97,412.94L147.77,412.43L149.63,410.7L151.42,407.78L155.14,407.41L156.88,407.91L162.4,412.67L164.2,413.01L167.92,412.82L169.72,412.07L171.57,410.66L173.37,408.25L175.23,406.21L177.09,406.84L182.43,411.9L184.29,412.52L189.81,412.97L191.6,411.89L195.26,409.27L197.12,407.07L200.66,409.43L202.52,410.77L206.18,412.73L207.98,412.93L211.69,412.9L213.49,411.43L215.35,410.04L217.15,407.66L219.01,406.4L220.87,407.55L224.41,409.67L226.21,412.35L229.87,413.12L231.72,413.13L233.58,412.96L235.38,411.64L237.24,410.73L239.04,408.4L240.9,406.74L242.76,408.09L248.16,412.55L250.01,413.18L255.53,412.88L257.33,411.94L262.85,406.44L264.71,407.32L266.39,408.29L268.25,410.67L270.04,412.32L271.9,412.74L277.42,412.26L279.22,411.03L284.74,404.91L286.6,406.65L288.28,406.36L290.13,409.48L291.93,411.48L293.79,412.38L299.31,412.1L301.11,411.21L306.63,403.5L308.49,404.05L310.16,405.66L312.02,409.44L313.82,411.94L315.68,411.51L321.2,411.52L323,409.56L326.66,407.69L328.52,404.17L332.11,408.01L333.97,408.32L335.77,410.91L337.63,411.47L343.15,411.33L344.95,409.85L346.81,408.14L348.61,404.87L350.46,405.03L352.32,406.37L354,405.23L355.86,409.71L359.52,412.04L361.32,411.74L366.84,410.81L368.7,407.16L370.49,404.07L372.35,402.49L374.21,405.64L375.89,405.38L377.75,407.16L379.55,411.18L386.93,411.04L388.73,408.76L390.58,405.32L392.38,403.62L394.24,401.47L396.1,403.58L397.78,404.8L399.64,408.28L401.44,410.46L403.3,411.1L408.82,411.16L410.61,410.15L412.47,406.01L414.27,403.88L416.13,403.17L417.99,404.25L425.25,411.28L427.05,411.23L430.76,411.2L432.56,410.03L438.08,403.18L439.94,404.04L441.62,405.5L443.48,408.53L447.14,411.25L448.94,411.02L452.65,411.2L454.45,409.86L459.97,401.43L461.83,403.81L465.37,407.93L467.17,411.07L474.54,410.98L476.34,409.63L480,405.06" style="vector-effect: non-scaling-stroke; fill: none; stroke: rgb(255, 217, 47); stroke-opacity: 1; stroke-width: 2px; opacity: 1;"/></g><g class="points"/><g class="text"/></g></g></g><g class="overplot"/><path class="xlines-above crisp" style="fill: none;" d="M0,0"/><path class="ylines-above crisp" style="fill: none;" d="M0,0"/><g class="overlines-above"/><g class="xaxislayer-above"><g class="xtick"><text text-anchor="middle" x="0" y="473" transform="translate(147.62,0)" style="font-family: 'Open Sans', verdana, arial, sans-serif; font-size: 12px; fill: rgb(68, 68, 68); fill-opacity: 1; white-space: pre; opacity: 1;">2005</text></g><g class="xtick"><text text-anchor="middle" x="0" y="473" style="font-family: 'Open Sans', verdana, arial, sans-serif; font-size: 12px; fill: rgb(68, 68, 68); fill-opacity: 1; white-space: pre; opacity: 1;" transform="translate(257.12,0)">2010</text></g><g class="xtick"><text text-anchor="middle" x="0" y="473" style="font-family: 'Open Sans', verdana, arial, sans-serif; font-size: 12px; fill: rgb(68, 68, 68); fill-opacity: 1; white-space: pre; opacity: 1;" transform="translate(366.63,0)">2015</text></g><g class="xtick"><text text-anchor="middle" x="0" y="473" style="font-family: 'Open Sans', verdana, arial, sans-serif; font-size: 12px; fill: rgb(68, 68, 68); fill-opacity: 1; white-space: pre; opacity: 1;" transform="translate(476.13,0)">2020</text></g></g><g class="yaxislayer-above"><g class="ytick"><text text-anchor="end" x="59" y="4.199999999999999" transform="translate(0,440.1)" style="font-family: 'Open Sans', verdana, arial, sans-serif; font-size: 12px; fill: rgb(68, 68, 68); fill-opacity: 1; white-space: pre; opacity: 1;">0</text></g><g class="ytick"><text text-anchor="end" x="59" y="4.199999999999999" style="font-family: 'Open Sans', verdana, arial, sans-serif; font-size: 12px; fill: rgb(68, 68, 68); fill-opacity: 1; white-space: pre; opacity: 1;" transform="translate(0,376.89)">10k</text></g><g class="ytick"><text text-anchor="end" x="59" y="4.199999999999999" style="font-family: 'Open Sans', verdana, arial, sans-serif; font-size: 12px; fill: rgb(68, 68, 68); fill-opacity: 1; white-space: pre; opacity: 1;" transform="translate(0,313.68)">20k</text></g><g class="ytick"><text text-anchor="end" x="59" y="4.199999999999999" style="font-family: 'Open Sans', verdana, arial, sans-serif; font-size: 12px; fill: rgb(68, 68, 68); fill-opacity: 1; white-space: pre; opacity: 1;" transform="translate(0,250.46)">30k</text></g><g class="ytick"><text text-anchor="end" x="59" y="4.199999999999999" style="font-family: 'Open Sans', verdana, arial, sans-serif; font-size: 12px; fill: rgb(68, 68, 68); fill-opacity: 1; white-space: pre; opacity: 1;" transform="translate(0,187.25)">40k</text></g><g class="ytick"><text text-anchor="end" x="59" y="4.199999999999999" style="font-family: 'Open Sans', verdana, arial, sans-serif; font-size: 12px; fill: rgb(68, 68, 68); fill-opacity: 1; white-space: pre; opacity: 1;" transform="translate(0,124.03)">50k</text></g><g class="ytick"><text text-anchor="end" x="59" y="4.199999999999999" style="font-family: 'Open Sans', verdana, arial, sans-serif; font-size: 12px; fill: rgb(68, 68, 68); fill-opacity: 1; white-space: pre; opacity: 1;" transform="translate(0,60.82)">60k</text></g></g><g class="overaxes-above"/></g></g><g class="polarlayer"/><g class="smithlayer"/><g class="ternarylayer"/><g class="geolayer"/><g class="funnelarealayer"/><g class="pielayer"/><g class="iciclelayer"/><g class="treemaplayer"/><g class="sunburstlayer"/><g class="glimages"/><defs id="topdefs-051c91"><g class="clips"/><clipPath id="legend051c91"><rect width="140" height="124" x="0" y="0"/></clipPath></defs><g class="layer-above"><g class="imagelayer"/><g class="shapelayer"/></g><g class="infolayer"><g class="legend" pointer-events="all" transform="translate(549.6,25)"><rect class="bg" shape-rendering="crispEdges" style="stroke: rgb(68, 68, 68); stroke-opacity: 1; fill: rgb(255, 255, 255); fill-opacity: 1; stroke-width: 0px;" width="140" height="124" x="0" y="0"/><g class="scrollbox" transform="" clip-path="url(#legend051c91)"><g class="groups"><g class="traces" style="opacity: 1;" transform="translate(0,14.5)"><text class="legendtext" text-anchor="start" x="40" y="4.680000000000001" style="font-family: 'Open Sans', verdana, arial, sans-serif; font-size: 12px; fill: rgb(68, 68, 68); fill-opacity: 1; white-space: pre;">Connecticut</text><g class="layers" style="opacity: 1;"><g class="legendfill"/><g class="legendlines"><path class="js-line" d="M5,0h30" style="fill: none; stroke: rgb(102, 194, 165); stroke-opacity: 1; stroke-width: 2px;"/></g><g class="legendsymbols"><g class="legendpoints"/></g></g><rect class="legendtoggle" x="0" y="-9.5" width="134.953125" height="19" style="fill: rgb(0, 0, 0); fill-opacity: 0;"/></g><g class="traces" style="opacity: 1;" transform="translate(0,33.5)"><text class="legendtext" text-anchor="start" x="40" y="4.680000000000001" style="font-family: 'Open Sans', verdana, arial, sans-serif; font-size: 12px; fill: rgb(68, 68, 68); fill-opacity: 1; white-space: pre;">Maine</text><g class="layers" style="opacity: 1;"><g class="legendfill"/><g class="legendlines"><path class="js-line" d="M5,0h30" style="fill: none; stroke: rgb(252, 141, 98); stroke-opacity: 1; stroke-width: 2px;"/></g><g class="legendsymbols"><g class="legendpoints"/></g></g><rect class="legendtoggle" x="0" y="-9.5" width="134.953125" height="19" style="fill: rgb(0, 0, 0); fill-opacity: 0;"/></g><g class="traces" style="opacity: 1;" transform="translate(0,52.5)"><text class="legendtext" text-anchor="start" x="40" y="4.680000000000001" style="font-family: 'Open Sans', verdana, arial, sans-serif; font-size: 12px; fill: rgb(68, 68, 68); fill-opacity: 1; white-space: pre;">Massachusetts</text><g class="layers" style="opacity: 1;"><g class="legendfill"/><g class="legendlines"><path class="js-line" d="M5,0h30" style="fill: none; stroke: rgb(141, 160, 203); stroke-opacity: 1; stroke-width: 2px;"/></g><g class="legendsymbols"><g class="legendpoints"/></g></g><rect class="legendtoggle" x="0" y="-9.5" width="134.953125" height="19" style="fill: rgb(0, 0, 0); fill-opacity: 0;"/></g><g class="traces" style="opacity: 1;" transform="translate(0,71.5)"><text class="legendtext" text-anchor="start" x="40" y="4.680000000000001" style="font-family: 'Open Sans', verdana, arial, sans-serif; font-size: 12px; fill: rgb(68, 68, 68); fill-opacity: 1; white-space: pre;">New Hampshire</text><g class="layers" style="opacity: 1;"><g class="legendfill"/><g class="legendlines"><path class="js-line" d="M5,0h30" style="fill: none; stroke: rgb(231, 138, 195); stroke-opacity: 1; stroke-width: 2px;"/></g><g class="legendsymbols"><g class="legendpoints"/></g></g><rect class="legendtoggle" x="0" y="-9.5" width="134.953125" height="19" style="fill: rgb(0, 0, 0); fill-opacity: 0;"/></g><g class="traces" style="opacity: 1;" transform="translate(0,90.5)"><text class="legendtext" text-anchor="start" x="40" y="4.680000000000001" style="font-family: 'Open Sans', verdana, arial, sans-serif; font-size: 12px; fill: rgb(68, 68, 68); fill-opacity: 1; white-space: pre;">Rhode Island</text><g class="layers" style="opacity: 1;"><g class="legendfill"/><g class="legendlines"><path class="js-line" d="M5,0h30" style="fill: none; stroke: rgb(166, 216, 84); stroke-opacity: 1; stroke-width: 2px;"/></g><g class="legendsymbols"><g class="legendpoints"/></g></g><rect class="legendtoggle" x="0" y="-9.5" width="134.953125" height="19" style="fill: rgb(0, 0, 0); fill-opacity: 0;"/></g><g class="traces" style="opacity: 1;" transform="translate(0,109.5)"><text class="legendtext" text-anchor="start" x="40" y="4.680000000000001" style="font-family: 'Open Sans', verdana, arial, sans-serif; font-size: 12px; fill: rgb(68, 68, 68); fill-opacity: 1; white-space: pre;">Vermont</text><g class="layers" style="opacity: 1;"><g class="legendfill"/><g class="legendlines"><path class="js-line" d="M5,0h30" style="fill: none; stroke: rgb(255, 217, 47); stroke-opacity: 1; stroke-width: 2px;"/></g><g class="legendsymbols"><g class="legendpoints"/></g></g><rect class="legendtoggle" x="0" y="-9.5" width="134.953125" height="19" style="fill: rgb(0, 0, 0); fill-opacity: 0;"/></g></g></g><rect class="scrollbar" rx="20" ry="3" width="0" height="0" style="fill: rgb(128, 139, 164); fill-opacity: 1;" x="0" y="0"/></g><g class="g-gtitle"><text class="gtitle" x="350" y="12.5" text-anchor="middle" dy="0em" style="font-family: 'Open Sans', verdana, arial, sans-serif; font-size: 17px; fill: rgb(68, 68, 68); opacity: 1; font-weight: normal; white-space: pre;">Total Natrual Gas Delivered to Consumers in New England States</text></g><g class="g-xtitle" transform="translate(0,-15)"><text class="xtitle" x="300" y="512" text-anchor="middle" style="font-family: 'Open Sans', verdana, arial, sans-serif; font-size: 14px; fill: rgb(68, 68, 68); opacity: 1; font-weight: normal; white-space: pre;">Source: EIA API</text></g><g class="g-ytitle"><text class="ytitle" transform="rotate(-90,22,242.5)" x="22" y="242.5" text-anchor="middle" style="font-family: 'Open Sans', verdana, arial, sans-serif; font-size: 14px; fill: rgb(68, 68, 68); opacity: 1; font-weight: normal; white-space: pre;">MMCF</text></g></g></svg>