<svg class="main-svg" xmlns="http://www.w3.org/2000/svg" xmlns:xlink="http://www.w3.org/1999/xlink" width="700" height="500" style="" viewBox="0 0 700 500"><rect x="0" y="0" width="700" height="500" style="fill: rgb(255, 255, 255); fill-opacity: 1;"/><defs id="defs-4a47b8"><g class="clips"><clipPath id="clip4a47b8xyplot" class="plotclip"><rect width="630" height="435"/></clipPath><clipPath class="axesclip" id="clip4a47b8x"><rect x="60" y="0" width="630" height="500"/></clipPath><clipPath class="axesclip" id="clip4a47b8y"><rect x="0" y="25" width="700" height="435"/></clipPath><clipPath class="axesclip" id="clip4a47b8xy"><rect x="60" y="25" width="630" height="435"/></clipPath></g><g class="gradients"/><g class="patterns"/></defs><g class="bglayer"/><g class="layer-below"><g class="imagelayer"/><g class="shapelayer"/></g><g class="cartesianlayer"><g class="subplot xy"><g class="layer-subplot"><g class="shapelayer"/><g class="imagelayer"/></g><g class="gridlayer"><g class="x"><path class="xgrid crisp" transform="translate(148.32999999999998,0)" d="M0,25v435" style="stroke: rgb(238, 238, 238); stroke-opacity: 1; stroke-width: 1px;"/><path class="xgrid crisp" transform="translate(274.56,0)" d="M0,25v435" style="stroke: rgb(238, 238, 238); stroke-opacity: 1; stroke-width: 1px;"/><path class="xgrid crisp" transform="translate(400.76,0)" d="M0,25v435" style="stroke: rgb(238, 238, 238); stroke-opacity: 1; stroke-width: 1px;"/><path class="xgrid crisp" transform="translate(527,0)" d="M0,25v435" style="stroke: rgb(238, 238, 238); stroke-opacity: 1; stroke-width: 1px;"/><path class="xgrid crisp" transform="translate(653.2,0)" d="M0,25v435" style="stroke: rgb(238, 238, 238); stroke-opacity: 1; stroke-width: 1px;"/></g><g class="y"><path class="ygrid crisp" transform="translate(0,396.39)" d="M60,0h630" style="stroke: rgb(238, 238, 238); stroke-opacity: 1; stroke-width: 1px;"/><path class="ygrid crisp" transform="translate(0,312.87)" d="M60,0h630" style="stroke: rgb(238, 238, 238); stroke-opacity: 1; stroke-width: 1px;"/><path class="ygrid crisp" transform="translate(0,229.34)" d="M60,0h630" style="stroke: rgb(238, 238, 238); stroke-opacity: 1; stroke-width: 1px;"/><path class="ygrid crisp" transform="translate(0,145.81)" d="M60,0h630" style="stroke: rgb(238, 238, 238); stroke-opacity: 1; stroke-width: 1px;"/><path class="ygrid crisp" transform="translate(0,62.28)" d="M60,0h630" style="stroke: rgb(238, 238, 238); stroke-opacity: 1; stroke-width: 1px;"/></g></g><g class="zerolinelayer"/><path class="xlines-below"/><path class="ylines-below"/><g class="overlines-below"/><g class="xaxislayer-below"/><g class="yaxislayer-below"/><g class="overaxes-below"/><g class="plot" transform="translate(60,25)" clip-path="url(#clip4a47b8xyplot)"><g class="scatterlayer mlayer"><g class="trace scatter trace04177b" style="stroke-miterlimit: 2; opacity: 1;"><g class="fills"/><g class="errorbars"/><g class="lines"><path class="js-line" d="M0,102.48L2.04,184.08L3.11,260.36L5.22,368.4L6.25,392.13L7.33,395.41L8.4,388.36L9.43,369.3L10.51,291.02L12.61,113.74L13.68,167.39L15.72,253.62L16.76,322.98L18.87,385.47L19.94,395.58L21.01,390.26L22.05,356.7L23.12,305.18L24.16,198.98L25.23,141.4L26.3,149.04L28.34,205.66L29.37,314.04L31.48,385.05L32.55,394.95L33.62,390.61L34.66,361.63L35.73,317.35L36.77,201.08L37.84,102.76L38.91,146.04L42.02,323.05L43.09,362.68L45.2,396.13L46.27,391.3L47.31,353.89L48.38,258.08L50.49,63.68L51.56,111.02L53.6,287.34L54.63,349.78L56.74,393.92L57.81,400.07L58.88,396.18L59.92,361.51L60.99,299.61L62.03,182.77L63.1,113.96L64.17,105.04L68.32,377.91L69.35,393.53L70.43,400.52L71.5,398.34L72.53,367.42L73.61,297.72L75.71,92.7L76.78,82.33L79.86,334.83L80.93,375.93L83.04,399.27L84.11,397.45L85.15,365.07L86.22,296.81L88.33,153.39L89.4,131.67L90.4,173.85L91.47,266.57L93.58,375.15L94.62,394.36L95.69,401.05L96.76,398.54L97.79,365.55L98.87,291.21L100.97,107.87L102.05,145.87L105.12,346.34L106.19,384.76L108.3,403.55L109.37,399.38L111.48,302.9L112.52,203.92L113.59,93.25L114.66,126.66L117.73,357.61L118.81,386.01L120.91,403.55L121.98,398.12L123.02,369.72L124.09,299.56L126.2,100.09L127.27,174.43L129.31,269.39L130.35,339.49L132.46,402.94L133.53,407.12L134.6,403.75L135.63,381.47L136.71,325.08L137.74,227.24L138.81,84.77L139.88,162.61L141.96,261.58L142.99,335.09L145.1,401.33L146.17,405.62L147.25,402.04L148.28,378.73L149.35,320.15L150.39,218.57L152.53,105.26L153.5,218.38L156.68,389.54L157.72,400.69L158.79,405.25L159.86,400.92L160.9,375.66L161.97,326.95L164.07,124.75L165.15,169.03L166.11,212.73L167.18,303.2L169.29,390.23L170.33,402.09L171.4,405.86L172.47,400.38L173.51,377.55L174.58,310.56L176.69,145.31L177.76,167.3L179.8,287.1L180.83,361.88L182.94,402.46L184.01,405.86L185.08,402.15L186.12,361.86L187.19,307.05L188.23,207.8L189.3,99.06L190.37,139.8L194.55,391.36L195.59,403.59L196.66,407.14L197.73,402.83L199.84,291.45L200.88,191.36L201.95,141.21L203.02,144.6L203.99,185.19L205.06,281.82L207.17,390L208.2,401.19L209.27,404.38L210.35,396.67L211.38,359.42L212.45,285.65L213.49,124.6L214.56,125.58L219.78,387.76L220.82,402.09L221.89,404.27L222.96,399.75L224,365.74L225.07,298.04L227.17,102.51L228.25,177.52L229.21,215.58L230.28,299.18L232.39,393.18L233.43,402.23L234.5,405.7L235.57,397.29L236.61,360.91L237.68,263.04L239.79,126.78L240.86,164.21L245.04,387.11L246.08,399.88L247.15,402.48L248.22,397.66L249.26,354.41L250.33,272.51L252.44,107.92L253.51,134.02L254.47,161.25L255.55,267.09L257.65,386.58L258.69,400.75L259.76,404.67L260.83,395.79L261.87,348.64L262.94,263.92L265.05,57.11L266.12,103.35L269.2,351.82L270.27,390.43L271.3,401.96L272.37,403.99L273.45,400.47L274.48,362.81L277.66,114.32L278.73,139.82L282.88,388.56L283.92,400.33L284.99,407.14L286.06,398.98L287.1,364.54L288.17,250.78L290.27,65L291.35,107.9L292.35,160.4L293.42,257.03L295.53,387.15L296.56,402.98L297.64,405.52L298.71,397.47L299.74,353.39L300.81,244.86L302.92,78.05L303.99,138.58L308.14,386.6L309.18,401.55L310.25,405.68L311.32,400.89L312.36,357.1L313.43,247.23L315.54,115.76L316.61,165.99L317.57,184.45L318.65,284.63L320.75,391.15L321.79,399.63L322.86,406.21L323.93,404.21L324.97,370.14L326.04,288.66L328.15,74.39L329.22,166.88L330.19,175.41L331.26,279.43L333.37,388.84L334.4,402.07L335.47,406.38L336.55,398.6L338.65,299.73L339.69,179.45L340.76,94.54L341.83,131.16L344.94,359.52L346.01,390.53L347.05,401.31L348.12,403.8L349.19,396.13L350.23,356.44L351.3,253.37L352.34,73.06L353.41,47.03L354.48,128.96L355.45,170.14L356.52,287.56L358.63,393.6L359.66,403.23L360.74,406.09L361.81,401.68L363.91,304.27L364.95,200.57L366.02,114.45L367.09,157.2L368.06,179.1L369.13,281.52L371.24,388.11L372.28,402.69L373.35,406.61L374.42,403.18L375.46,350.27L376.53,253.12L378.64,59.85L379.71,85.63L382.78,351.48L383.85,389.16L385.96,406.54L387.03,401.21L388.07,358.21L389.14,282.16L391.25,52.78L392.32,96.82L395.43,365.7L396.5,394.41L397.54,402.77L398.61,404.89L399.68,402.75L400.72,364.54L403.9,82.25L404.97,137.88L405.94,171.76L407.01,294.48L409.11,391.43L410.15,403.85L411.22,407.9L412.29,405.53L413.33,370.49L414.4,293.29L415.44,132.82L416.51,156.86L417.58,161.62L418.55,193.51L420.66,369.93L421.73,395.97L422.76,406.65L423.84,409.63L424.91,402.75L425.94,354.5L430.19,79.27L431.16,197.44L434.34,397.64L435.38,405.8L436.45,408.14L437.52,406.29L438.56,382.14L439.63,285.58L441.74,85.88L442.81,113.18L446.99,394.65L448.03,405.47L449.1,408.44L450.17,405.6L451.2,363.85L452.28,273.93L454.38,59.11L455.45,139.05L459.6,395.98L460.64,405.38L461.71,408.36L462.78,404.94L464.89,297.69L465.93,135.73L467,65.43L468.07,122.99L471.14,372.43L472.21,398.94L473.25,408.44L474.32,410.2L475.39,405.93L476.43,370.73L479.61,49.91L480.68,134.18L483.76,369.14L484.83,399.51L485.86,407.23L486.94,408.03L488.01,403.66L489.04,360.74L492.22,123.16L493.29,178.42L495.37,338.31L496.4,386.81L498.51,410.02L499.58,410.82L500.65,405.39L501.69,354.65L504.87,90.62L505.94,141.66L506.91,178.34L507.98,301.89L510.09,401.61L511.13,408.35L512.2,409.93L513.27,405.72L514.3,361.93L515.38,238.78L517.48,21.75L518.56,98.71L519.52,162.61L520.59,306.18L522.7,402.47L523.74,407.82L524.81,410.99L525.88,404.08L526.92,366.35L527.99,227.92L530.1,63.2L531.17,78.06L534.24,380.76L535.32,403.11L537.42,411.97L538.49,409.61L539.53,370.75L540.6,285.11L542.71,87.85L543.78,166.72L545.85,317.91L546.89,373.93L547.96,403.7L549,410.48L550.07,412.97L551.14,409.07L552.18,376.66L553.25,296.33L554.29,123.25L555.36,107.9L556.43,212.92L557.4,212.72L559.5,371.61L560.58,403.11L561.61,410.05L562.68,411.56L563.76,407.1L564.79,369.27L567.97,45.1L569.04,166.8L570.01,179.54L571.08,270.81L572.12,384.33L573.19,405.12L575.3,413.25L576.37,408.01L577.4,348.29L578.48,204.77L580.58,56.59L581.66,117L582.62,167.37L583.69,317.69L585.8,400.96L586.84,408.25L587.91,412.37L588.98,409.05L590.02,358.16L591.09,208.9L593.2,110.42L594.27,147.06L597.38,356.11L598.45,398.07L600.56,409.47L601.63,402.08L603.74,271.22L604.77,120.96L605.84,81.15L606.92,89.18L608.96,311.95L609.99,363.96L611.06,400.8L612.1,407.79L613.17,410.53L614.24,405.48L615.28,374.46L616.35,253.58L618.46,53.47L619.53,122.42L622.6,370.84L623.68,403.16L625.78,411.8L626.86,407.1L627.89,353.76L628.96,239.25L630,104.21" style="vector-effect: non-scaling-stroke; fill: none; stroke: rgb(31, 119, 180); stroke-opacity: 1; stroke-width: 2px; opacity: 1;"/></g><g class="points"/><g class="text"/></g></g></g><g class="overplot"/><path class="xlines-above crisp" d="M0,0" style="fill: none;"/><path class="ylines-above crisp" d="M0,0" style="fill: none;"/><g class="overlines-above"/><g class="xaxislayer-above"><g class="xtick"><text text-anchor="middle" x="0" y="473" transform="translate(148.32999999999998,0)" style="font-family: 'Open Sans', verdana, arial, sans-serif; font-size: 12px; fill: rgb(68, 68, 68); fill-opacity: 1; white-space: pre; opacity: 1;">1980</text></g><g class="xtick"><text text-anchor="middle" x="0" y="473" style="font-family: 'Open Sans', verdana, arial, sans-serif; font-size: 12px; fill: rgb(68, 68, 68); fill-opacity: 1; white-space: pre; opacity: 1;" transform="translate(274.56,0)">1990</text></g><g class="xtick"><text text-anchor="middle" x="0" y="473" style="font-family: 'Open Sans', verdana, arial, sans-serif; font-size: 12px; fill: rgb(68, 68, 68); fill-opacity: 1; white-space: pre; opacity: 1;" transform="translate(400.76,0)">2000</text></g><g class="xtick"><text text-anchor="middle" x="0" y="473" style="font-family: 'Open Sans', verdana, arial, sans-serif; font-size: 12px; fill: rgb(68, 68, 68); fill-opacity: 1; white-space: pre; opacity: 1;" transform="translate(527,0)">2010</text></g><g class="xtick"><text text-anchor="middle" x="0" y="473" style="font-family: 'Open Sans', verdana, arial, sans-serif; font-size: 12px; fill: rgb(68, 68, 68); fill-opacity: 1; white-space: pre; opacity: 1;" transform="translate(653.2,0)">2020</text></g></g><g class="yaxislayer-above"><g class="ytick"><text text-anchor="end" x="59" y="4.199999999999999" transform="translate(0,396.39)" style="font-family: 'Open Sans', verdana, arial, sans-serif; font-size: 12px; fill: rgb(68, 68, 68); fill-opacity: 1; white-space: pre; opacity: 1;">0.2M</text></g><g class="ytick"><text text-anchor="end" x="59" y="4.199999999999999" style="font-family: 'Open Sans', verdana, arial, sans-serif; font-size: 12px; fill: rgb(68, 68, 68); fill-opacity: 1; white-space: pre; opacity: 1;" transform="translate(0,312.87)">0.4M</text></g><g class="ytick"><text text-anchor="end" x="59" y="4.199999999999999" style="font-family: 'Open Sans', verdana, arial, sans-serif; font-size: 12px; fill: rgb(68, 68, 68); fill-opacity: 1; white-space: pre; opacity: 1;" transform="translate(0,229.34)">0.6M</text></g><g class="ytick"><text text-anchor="end" x="59" y="4.199999999999999" style="font-family: 'Open Sans', verdana, arial, sans-serif; font-size: 12px; fill: rgb(68, 68, 68); fill-opacity: 1; white-space: pre; opacity: 1;" transform="translate(0,145.81)">0.8M</text></g><g class="ytick"><text text-anchor="end" x="59" y="4.199999999999999" style="font-family: 'Open Sans', verdana, arial, sans-serif; font-size: 12px; fill: rgb(68, 68, 68); fill-opacity: 1; white-space: pre; opacity: 1;" transform="translate(0,62.28)">1M</text></g></g><g class="overaxes-above"/></g></g><g class="polarlayer"/><g class="smithlayer"/><g class="ternarylayer"/><g class="geolayer"/><g class="funnelarealayer"/><g class="pielayer"/><g class="iciclelayer"/><g class="treemaplayer"/><g class="sunburstlayer"/><g class="glimages"/><defs id="topdefs-4a47b8"><g class="clips"/></defs><g class="layer-above"><g class="imagelayer"/><g class="shapelayer"/></g><g class="infolayer"><g class="g-gtitle"><text class="gtitle" x="350" y="12.5" text-anchor="middle" dy="0em" style="font-family: 'Open Sans', verdana, arial, sans-serif; font-size: 17px; fill: rgb(68, 68, 68); opacity: 1; font-weight: normal; white-space: pre;">US Monthly Natural Gas Consumption by Residential Consumers</text></g><g class="g-xtitle" transform="translate(0,-15)"><text class="xtitle" x="375" y="512" text-anchor="middle" style="font-family: 'Open Sans', verdana, arial, sans-serif; font-size: 14px; fill: rgb(68, 68, 68); opacity: 1; font-weight: normal; white-space: pre;">Source: EIA API</text></g><g class="g-ytitle"><text class="ytitle" transform="rotate(-90,22,242.5)" x="22" y="242.5" text-anchor="middle" style="font-family: 'Open Sans', verdana, arial, sans-serif; font-size: 14px; fill: rgb(68, 68, 68); opacity: 1; font-weight: normal; white-space: pre;">MMCF</text></g></g></svg>